HIERARCHY
ROOT Hips
{
	OFFSET 0.00000 0.00000 0.00000
	CHANNELS 6 Xposition Yposition Zposition Yrotation Zrotation Xrotation 
	JOINT Lumbar
	{
		OFFSET 0 0 0
		CHANNELS 3 Zrotation Xrotation Yrotation
		JOINT Neck
		{
			OFFSET 0.00 0.2701 0.00
			CHANNELS 3 Zrotation Xrotation Yrotation
			End Site
			{
				OFFSET 0.00 0.1379 0.00
			}
		}
		JOINT RightShoulder
		{
			OFFSET 0.0119 0.2289 0.1181
			CHANNELS 3 Zrotation Xrotation Yrotation
			JOINT RightElbow
			{
				OFFSET 0.00 -0.1475 0.00
				CHANNELS 2 Zrotation Yrotation
				JOINT RightWrist
				{
					OFFSET 0.00 -0.1605 0.00
					CHANNELS 2 Zrotation Xrotation
					End Site
					{
						OFFSET 0.0040 -0.1068 0.0006
					}
				}
			}
		}
		JOINT LeftShoulder
		{
			OFFSET 0.0119 0.2289 -0.1181
			CHANNELS 3 Zrotation Xrotation Yrotation
			JOINT LeftElbow
			{
				OFFSET 0.00 -0.1475 0.00
				CHANNELS 2 Zrotation Yrotation
				JOINT LeftWrist
				{
					OFFSET 0.00 -0.1605 0.00
					CHANNELS 2 Zrotation Xrotation
					End Site
					{
						OFFSET 0.0040 -0.1068 -0.0006
					}
				}
			}
		}
	}
	JOINT RightHip
	{
		OFFSET 0.0316 -0.0424 0.0458
		CHANNELS 3 Zrotation Xrotation Yrotation
		JOINT RightKnee
		{
			OFFSET 0.00 -0.2438 0.00
			CHANNELS 1 Zrotation
			JOINT RightAnkle
			{
				OFFSET 0.00 -0.2449 0.00
				CHANNELS 3 Zrotation Xrotation Yrotation
				End Site
				{
					OFFSET 0.1237 -0.0542 0.0051
				}
			}
		}
	}
	JOINT LeftHip
	{
		OFFSET 0.0316 -0.0424 -0.0458
		CHANNELS 3 Zrotation Xrotation Yrotation
		JOINT LeftKnee
		{
			OFFSET 0.00 -0.2438 0.00
			CHANNELS 1 Zrotation
			JOINT LeftAnkle
			{
				OFFSET 0.00 -0.2449 0.00
				CHANNELS 3 Zrotation Xrotation Yrotation
				End Site
				{
					OFFSET 0.1237 -0.0542 -0.0051
				}
			}
		}
	}
}
MOTION
Frames: 16
Frame Time: 0.02
0.00851 0.00195 -0.00133 23.5925 -22.31477 -7.96525 48.38065 0.89147 -3.82388 -9.62999 -2.69712 -0.93485 -20.67555 -8.57773 0.7966 40.13849 89.7839 6.47942 -0.02489 -28.50388 10.70229 5.00266 43.13018 -132.11128 21.13841 -6.89949 34.23353 -0.6801 -5.69912 -20.75763 -8.15084 -3.58123 -4.07663 37.48424 9.51427 -1.52944 -26.74336 -9.10162 3.98188 4.30079
0.00674 0.00174 -0.00021 23.81736 -22.44705 -7.92855 47.9788 0.92665 -3.88164 -9.50021 -2.59704 -0.96436 -20.1757 -8.73869 1.00474 39.79223 89.60895 6.52494 -0.02697 -27.50695 10.81637 4.52792 42.15007 -128.34574 20.28451 -6.227 34.53825 -0.85868 -6.53684 -20.75469 -8.14179 -3.54935 -4.05515 37.89564 9.62592 -0.82738 -26.75914 -9.07558 3.90348 4.25986
0.00497 0.00152 0.00092 24.04162 -22.57939 -7.89195 47.57711 0.96184 -3.9392 -9.37037 -2.49708 -0.99383 -19.67592 -8.89919 1.21253 39.44632 89.43735 6.57091 -0.02841 -26.51137 10.93034 4.05334 41.17281 -124.59159 19.43313 -5.55658 34.8432 -1.03682 -7.37199 -20.75189 -8.13281 -3.51756 -4.03374 38.30696 9.73729 -0.12685 -26.77501 -9.04963 3.82523 4.21901
0.00321 0.0013 0.00204 24.26581 -22.71132 -7.85536 47.17635 0.99693 -3.99679 -9.24092 -2.39728 -1.02326 -19.17738 -9.05966 1.42004 39.10098 89.26347 6.61639 -0.03036 -25.51725 11.0441 3.5799 40.19563 -120.83762 18.58185 -4.88616 35.14713 -1.21485 -8.2071 -20.74896 -8.12379 -3.48578 -4.01233 38.71725 9.84861 0.57315 -26.79077 -9.02367 3.74705 4.17819
0.00144 0.00108 0.00316 24.49057 -22.84308 -7.81868 46.77576 1.03196 -4.05456 -9.11169 -2.29743 -1.0527 -18.67928 -9.22059 1.62787 38.75565 89.08497 6.66117 -0.03323 -24.5224 11.15794 3.10668 39.21582 -117.07231 17.72811 -4.21366 35.4505 -1.39332 -9.04486 -20.7459 -8.11467 -3.45389 -3.99083 39.12726 9.96018 1.27444 -26.80639 -8.99762 3.66876 4.1373
-0.00034 0.00086 0.00429 24.71373 -22.97665 -7.78227 46.37174 1.06748 -4.11167 -8.98057 -2.19722 -1.08224 -18.17599 -9.3802 1.83561 38.40861 88.92774 6.70963 -0.0317 -23.52533 11.27218 2.6292 38.24407 -113.34183 16.88172 -3.54765 35.75883 -1.57075 -9.87451 -20.74368 -8.10602 -3.42231 -3.96961 39.54137 10.07113 1.97334 -26.82278 -8.9719 3.5906 4.09653
-0.00208 0.00065 0.00541 24.93992 -23.10631 -7.74533 45.97527 1.10198 -4.1701 -8.85344 -2.09788 -1.11154 -17.68383 -9.54223 2.04309 38.06517 88.72849 6.75071 -0.03888 -22.53396 11.38537 2.16112 37.25679 -109.54567 16.02153 -2.86939 36.05655 -1.75001 -10.71932 -20.73964 -8.09643 -3.39017 -3.94786 39.94653 10.18321 2.67626 -26.83759 -8.94554 3.51226 4.05558
-0.00386 0.00043 0.00653 25.16321 -23.23977 -7.7089 45.57146 1.13743 -4.22721 -8.72254 -1.99767 -1.14106 -17.18117 -9.70213 2.25117 37.71879 88.56689 6.79843 -0.03829 -21.53708 11.49974 1.68381 36.28453 -105.80952 15.17394 -2.2023 36.3646 -1.92769 -11.55059 -20.7375 -8.08768 -3.35851 -3.92658 40.36039 10.29426 3.37547 -26.85389 -8.91976 3.43409 4.01479
-0.00567 0.0002 0.00767 25.38349 -23.37722 -7.67301 45.15983 1.17403 -4.28315 -8.58725 -1.89658 -1.17088 -16.66612 -9.85911 2.45872 37.36704 88.45614 6.85504 -0.02706 -20.53373 11.61482 1.19704 35.32745 -102.14733 14.34189 -1.54908 36.68342 -2.1031 -12.36391 -20.73681 -8.08005 -3.32755 -3.90598 40.78347 10.40406 4.07056 -26.87192 -8.8947 3.35606 3.97418
-0.00725 2e-05 0.00874 25.62268 -23.48976 -7.63374 44.79662 1.20398 -4.34716 -8.47786 -1.8011 -1.19909 -16.22363 -10.03193 2.66553 37.04083 88.06735 6.86284 -0.07361 -19.56835 11.72363 0.77015 34.27343 -98.06131 13.42083 -0.81666 36.93472 -2.29056 -13.27632 -20.72518 -8.06627 -3.29289 -3.88175 41.14929 10.52105 4.79066 -26.8797 -8.86556 3.27702 3.93246
-0.00934 -0.00027 0.00997 25.82094 -23.65608 -7.60179 44.32922 1.24798 -4.39329 -8.31347 -1.69348 -1.23063 -15.62746 -10.17195 2.87627 36.66424 88.25558 6.97208 -0.00053 -18.52264 11.84702 0.21363 33.43014 -94.86869 12.6874 -0.251 37.33185 -2.45321 -13.98227 -20.73827 -8.06529 -3.26583 -3.86501 41.63844 10.62289 5.45705 -26.90931 -8.845 3.20026 3.89315
-0.01278 -0.00086 0.01162 25.91408 -23.9619 -7.58877 43.58887 1.33066 -4.39661 -7.99914 -1.55461 -1.27201 -14.60987 -10.21609 3.07837 36.12085 90.12081 7.3752 0.42289 -17.25476 12.00017 -0.67552 33.11987 -94.15736 12.47462 -0.1502 38.10704 -2.54212 -14.09388 -20.80723 -8.10124 -3.26176 -3.87034 42.45047 10.68277 5.98227 -26.99853 -8.84834 3.12858 3.85995
-0.01676 -0.00158 0.01345 25.96469 -24.32347 -7.58336 42.74121 1.42731 -4.38077 -7.62932 -1.4032 -1.31661 -13.43824 -10.22854 3.28795 35.5335 92.54678 7.8772 0.96216 -15.90623 12.1701 -1.69896 33.0298 -94.33749 12.44905 -0.21553 39.03357 -2.60706 -14.00255 -20.90376 -8.14974 -3.265 -3.88292 43.39002 10.72755 6.4521 -27.11022 -8.86027 3.05943 3.82926
-0.02053 -0.00227 0.01523 26.03019 -24.66447 -7.57522 41.93457 1.51764 -4.36966 -7.2843 -1.25611 -1.3593 -12.33641 -10.25908 3.50684 34.9832 94.65682 8.32403 1.43426 -14.59609 12.33876 -2.67626 32.86817 -94.09037 12.33417 -0.20005 39.90425 -2.68679 -14.02326 -20.99477 -8.19127 -3.26343 -3.89113 44.28041 10.77947 6.94367 -27.21124 -8.86792 2.98988 3.7977
-0.02412 -0.00284 0.01688 26.11474 -24.98444 -7.5639 41.16161 1.60837 -4.37547 -6.94118 -1.11467 -1.40391 -11.23364 -10.27329 3.67231 34.35522 97.03157 8.8148 1.96869 -13.27959 12.47967 -3.59168 32.58567 -93.93882 12.23802 -0.20716 40.71734 -2.75047 -13.96314 -21.05402 -8.23805 -3.26791 -3.90376 45.13077 10.83008 7.45096 -27.31228 -8.8769 2.91711 3.76493
-0.02822 -0.00368 0.01885 26.14904 -25.36274 -7.56118 40.2916 1.70098 -4.34127 -6.58065 -0.9587 -1.44526 -10.09819 -10.31489 3.95053 33.88552 98.9808 9.23679 2.39978 -11.95578 12.68356 -4.6669 32.60829 -93.79905 12.14659 -0.2068 41.69038 -2.84131 -14.01924 -21.18877 -8.27704 -3.26181 -3.90906 46.09869 10.87998 7.9107 -27.42107 -8.88547 2.85175 3.73537
